<svg width="215" height="10" viewBox="0 0 215 10" fill="none" xmlns="http://www.w3.org/2000/svg">
<path d="M4.50439 9.548C3.68039 9.548 2.95639 9.368 2.33239 9.008C1.70839 8.64 1.22039 8.136 0.868387 7.496C0.524387 6.856 0.352387 6.124 0.352387 5.3C0.352387 4.468 0.524387 3.732 0.868387 3.092C1.22039 2.452 1.70839 1.952 2.33239 1.592C2.95639 1.232 3.68039 1.052 4.50439 1.052C5.32839 1.052 6.05239 1.232 6.67639 1.592C7.30039 1.952 7.78439 2.452 8.12839 3.092C8.48039 3.732 8.65639 4.468 8.65639 5.3C8.65639 6.124 8.48039 6.856 8.12839 7.496C7.78439 8.136 7.30039 8.64 6.67639 9.008C6.05239 9.368 5.32839 9.548 4.50439 9.548ZM4.50439 9.104C5.25639 9.104 5.90839 8.944 6.46039 8.624C7.01239 8.304 7.43639 7.856 7.73239 7.28C8.03639 6.704 8.18839 6.044 8.18839 5.3C8.18839 4.54 8.03639 3.876 7.73239 3.308C7.43639 2.732 7.01239 2.284 6.46039 1.964C5.90839 1.644 5.25639 1.484 4.50439 1.484C3.75239 1.484 3.10039 1.644 2.54839 1.964C1.99639 2.284 1.56839 2.732 1.26439 3.308C0.968387 3.876 0.820387 4.54 0.820387 5.3C0.820387 6.044 0.968387 6.704 1.26439 7.28C1.56839 7.856 1.99639 8.304 2.54839 8.624C3.10039 8.944 3.75239 9.104 4.50439 9.104ZM4.50439 8.072C4.02439 8.072 3.58839 7.964 3.19639 7.748C2.80439 7.532 2.48839 7.216 2.24839 6.8C2.01639 6.376 1.90039 5.872 1.90039 5.288C1.90039 4.704 2.01639 4.204 2.24839 3.788C2.48839 3.372 2.80439 3.056 3.19639 2.84C3.58839 2.616 4.02439 2.504 4.50439 2.504C5.09639 2.504 5.61639 2.664 6.06439 2.984C6.51239 3.296 6.81239 3.748 6.96439 4.34H6.04039C5.92839 3.98 5.73239 3.708 5.45239 3.524C5.17239 3.332 4.85239 3.236 4.49239 3.236C4.02839 3.236 3.62839 3.408 3.29239 3.752C2.95639 4.096 2.78839 4.612 2.78839 5.3C2.78839 5.98 2.95639 6.492 3.29239 6.836C3.62839 7.18 4.02839 7.352 4.49239 7.352C5.27639 7.352 5.79239 6.988 6.04039 6.26H6.96439C6.81239 6.82 6.51239 7.264 6.06439 7.592C5.61639 7.912 5.09639 8.072 4.50439 8.072ZM13.1995 9.5V8.792C13.7675 8.344 14.3035 7.892 14.8075 7.436C15.3195 6.972 15.7715 6.516 16.1635 6.068C16.5635 5.62 16.8755 5.18 17.0995 4.748C17.3315 4.316 17.4475 3.9 17.4475 3.5C17.4475 3.204 17.3955 2.928 17.2915 2.672C17.1955 2.416 17.0355 2.212 16.8115 2.06C16.5875 1.9 16.2835 1.82 15.8995 1.82C15.5315 1.82 15.2235 1.904 14.9755 2.072C14.7275 2.232 14.5395 2.448 14.4115 2.72C14.2915 2.992 14.2315 3.284 14.2315 3.596H13.2595C13.2595 3.044 13.3755 2.572 13.6075 2.18C13.8395 1.78 14.1555 1.476 14.5555 1.268C14.9555 1.06 15.4075 0.956 15.9115 0.956C16.6555 0.956 17.2635 1.168 17.7355 1.592C18.2155 2.008 18.4555 2.632 18.4555 3.464C18.4555 3.96 18.3315 4.452 18.0835 4.94C17.8355 5.42 17.5195 5.888 17.1355 6.344C16.7515 6.792 16.3395 7.212 15.8995 7.604C15.4675 7.996 15.0635 8.348 14.6875 8.66H18.7435V9.5H13.1995ZM23.3575 9.644C22.6135 9.644 21.9695 9.464 21.4255 9.104C20.8895 8.736 20.4775 8.228 20.1895 7.58C19.9015 6.924 19.7575 6.164 19.7575 5.3C19.7575 4.436 19.9015 3.68 20.1895 3.032C20.4775 2.376 20.8895 1.868 21.4255 1.508C21.9695 1.14 22.6135 0.956 23.3575 0.956C24.1015 0.956 24.7415 1.14 25.2775 1.508C25.8135 1.868 26.2255 2.376 26.5135 3.032C26.8015 3.68 26.9455 4.436 26.9455 5.3C26.9455 6.164 26.8015 6.924 26.5135 7.58C26.2255 8.228 25.8135 8.736 25.2775 9.104C24.7415 9.464 24.1015 9.644 23.3575 9.644ZM23.3575 8.756C23.8455 8.756 24.2815 8.62 24.6655 8.348C25.0575 8.068 25.3615 7.672 25.5775 7.16C25.8015 6.64 25.9135 6.02 25.9135 5.3C25.9135 4.58 25.8015 3.964 25.5775 3.452C25.3615 2.94 25.0575 2.548 24.6655 2.276C24.2815 1.996 23.8455 1.856 23.3575 1.856C22.8615 1.856 22.4215 1.996 22.0375 2.276C21.6535 2.548 21.3495 2.94 21.1255 3.452C20.9015 3.964 20.7895 4.58 20.7895 5.3C20.7895 6.02 20.9015 6.64 21.1255 7.16C21.3495 7.672 21.6535 8.068 22.0375 8.348C22.4215 8.62 22.8615 8.756 23.3575 8.756ZM28.1526 9.5V8.792C28.7206 8.344 29.2566 7.892 29.7606 7.436C30.2726 6.972 30.7246 6.516 31.1166 6.068C31.5166 5.62 31.8286 5.18 32.0526 4.748C32.2846 4.316 32.4006 3.9 32.4006 3.5C32.4006 3.204 32.3486 2.928 32.2446 2.672C32.1486 2.416 31.9886 2.212 31.7646 2.06C31.5406 1.9 31.2366 1.82 30.8526 1.82C30.4846 1.82 30.1766 1.904 29.9286 2.072C29.6806 2.232 29.4926 2.448 29.3646 2.72C29.2446 2.992 29.1846 3.284 29.1846 3.596H28.2126C28.2126 3.044 28.3286 2.572 28.5606 2.18C28.7926 1.78 29.1086 1.476 29.5086 1.268C29.9086 1.06 30.3606 0.956 30.8646 0.956C31.6086 0.956 32.2166 1.168 32.6886 1.592C33.1686 2.008 33.4086 2.632 33.4086 3.464C33.4086 3.96 33.2846 4.452 33.0366 4.94C32.7886 5.42 32.4726 5.888 32.0886 6.344C31.7046 6.792 31.2926 7.212 30.8526 7.604C30.4206 7.996 30.0166 8.348 29.6406 8.66H33.6966V9.5H28.1526ZM37.7678 9.644C37.2318 9.644 36.7478 9.548 36.3158 9.356C35.8838 9.156 35.5358 8.86 35.2718 8.468C35.0158 8.076 34.8798 7.588 34.8638 7.004H35.8838C35.8918 7.484 36.0598 7.9 36.3878 8.252C36.7158 8.596 37.1758 8.768 37.7678 8.768C38.3598 8.768 38.8038 8.604 39.0998 8.276C39.4038 7.948 39.5558 7.552 39.5558 7.088C39.5558 6.696 39.4598 6.376 39.2678 6.128C39.0838 5.88 38.8318 5.696 38.5118 5.576C38.1998 5.456 37.8558 5.396 37.4798 5.396H36.8558V4.544H37.4798C38.0238 4.544 38.4478 4.42 38.7518 4.172C39.0638 3.924 39.2198 3.576 39.2198 3.128C39.2198 2.752 39.0958 2.444 38.8478 2.204C38.6078 1.956 38.2478 1.832 37.7678 1.832C37.3038 1.832 36.9318 1.972 36.6518 2.252C36.3718 2.524 36.2158 2.868 36.1838 3.284H35.1638C35.1878 2.828 35.3078 2.424 35.5238 2.072C35.7478 1.72 36.0518 1.448 36.4358 1.256C36.8198 1.056 37.2638 0.956 37.7678 0.956C38.3118 0.956 38.7638 1.052 39.1238 1.244C39.4918 1.436 39.7678 1.692 39.9518 2.012C40.1438 2.332 40.2398 2.684 40.2398 3.068C40.2398 3.492 40.1238 3.88 39.8918 4.232C39.6598 4.576 39.3118 4.808 38.8478 4.928C39.3438 5.032 39.7558 5.268 40.0838 5.636C40.4118 6.004 40.5758 6.488 40.5758 7.088C40.5758 7.552 40.4678 7.98 40.2518 8.372C40.0438 8.756 39.7318 9.064 39.3158 9.296C38.8998 9.528 38.3838 9.644 37.7678 9.644ZM45.2023 6.44V5.588H49.9543V6.44H45.2023ZM56.6784 9.5V1.928H54.1704V1.1H60.1944V1.928H57.6864V9.5H56.6784ZM62.9991 9.644C62.4391 9.644 61.9351 9.516 61.4871 9.26C61.0391 9.004 60.6831 8.644 60.4191 8.18C60.1631 7.708 60.0351 7.156 60.0351 6.524C60.0351 5.892 60.1671 5.344 60.4311 4.88C60.6951 4.408 61.0511 4.044 61.4991 3.788C61.9551 3.532 62.4631 3.404 63.0231 3.404C63.5831 3.404 64.0871 3.532 64.5351 3.788C64.9831 4.044 65.3351 4.408 65.5911 4.88C65.8551 5.344 65.9871 5.892 65.9871 6.524C65.9871 7.156 65.8551 7.708 65.5911 8.18C65.3271 8.644 64.9671 9.004 64.5111 9.26C64.0631 9.516 63.5591 9.644 62.9991 9.644ZM62.9991 8.78C63.3431 8.78 63.6631 8.696 63.9591 8.528C64.2551 8.36 64.4951 8.108 64.6791 7.772C64.8631 7.436 64.9551 7.02 64.9551 6.524C64.9551 6.028 64.8631 5.612 64.6791 5.276C64.5031 4.94 64.2671 4.688 63.9711 4.52C63.6751 4.352 63.3591 4.268 63.0231 4.268C62.6791 4.268 62.3591 4.352 62.0631 4.52C61.7671 4.688 61.5271 4.94 61.3431 5.276C61.1591 5.612 61.0671 6.028 61.0671 6.524C61.0671 7.02 61.1591 7.436 61.3431 7.772C61.5271 8.108 61.7631 8.36 62.0511 8.528C62.3471 8.696 62.6631 8.78 62.9991 8.78ZM70.0887 9.644C69.4967 9.644 68.9767 9.508 68.5287 9.236C68.0887 8.964 67.7447 8.592 67.4967 8.12C67.2567 7.648 67.1367 7.112 67.1367 6.512C67.1367 5.912 67.2607 5.38 67.5087 4.916C67.7567 4.444 68.1007 4.076 68.5407 3.812C68.9807 3.54 69.5007 3.404 70.1007 3.404C70.5887 3.404 71.0207 3.504 71.3967 3.704C71.7727 3.904 72.0647 4.184 72.2727 4.544V0.86H73.2807V9.5H72.3687L72.2727 8.516C72.0807 8.804 71.8047 9.064 71.4447 9.296C71.0847 9.528 70.6327 9.644 70.0887 9.644ZM70.1967 8.768C70.5967 8.768 70.9487 8.676 71.2527 8.492C71.5647 8.3 71.8047 8.036 71.9727 7.7C72.1487 7.364 72.2367 6.972 72.2367 6.524C72.2367 6.076 72.1487 5.684 71.9727 5.348C71.8047 5.012 71.5647 4.752 71.2527 4.568C70.9487 4.376 70.5967 4.28 70.1967 4.28C69.8047 4.28 69.4527 4.376 69.1407 4.568C68.8367 4.752 68.5967 5.012 68.4207 5.348C68.2527 5.684 68.1687 6.076 68.1687 6.524C68.1687 6.972 68.2527 7.364 68.4207 7.7C68.5967 8.036 68.8367 8.3 69.1407 8.492C69.4527 8.676 69.8047 8.768 70.1967 8.768ZM77.6359 9.644C77.0759 9.644 76.5719 9.516 76.1239 9.26C75.6759 9.004 75.3199 8.644 75.0559 8.18C74.7999 7.708 74.6719 7.156 74.6719 6.524C74.6719 5.892 74.8039 5.344 75.0679 4.88C75.3319 4.408 75.6879 4.044 76.1359 3.788C76.5919 3.532 77.0999 3.404 77.6599 3.404C78.2199 3.404 78.7239 3.532 79.1719 3.788C79.6199 4.044 79.9719 4.408 80.2279 4.88C80.4919 5.344 80.6239 5.892 80.6239 6.524C80.6239 7.156 80.4919 7.708 80.2279 8.18C79.9639 8.644 79.6039 9.004 79.1479 9.26C78.6999 9.516 78.1959 9.644 77.6359 9.644ZM77.6359 8.78C77.9799 8.78 78.2999 8.696 78.5959 8.528C78.8919 8.36 79.1319 8.108 79.3159 7.772C79.4999 7.436 79.5919 7.02 79.5919 6.524C79.5919 6.028 79.4999 5.612 79.3159 5.276C79.1399 4.94 78.9039 4.688 78.6079 4.52C78.3119 4.352 77.9959 4.268 77.6599 4.268C77.3159 4.268 76.9959 4.352 76.6999 4.52C76.4039 4.688 76.1639 4.94 75.9799 5.276C75.7959 5.612 75.7039 6.028 75.7039 6.524C75.7039 7.02 75.7959 7.436 75.9799 7.772C76.1639 8.108 76.3999 8.36 76.6879 8.528C76.9839 8.696 77.2999 8.78 77.6359 8.78ZM84.3054 9.644C83.5934 9.644 83.0014 9.464 82.5294 9.104C82.0574 8.744 81.7814 8.256 81.7014 7.64H82.7334C82.7974 7.952 82.9614 8.224 83.2254 8.456C83.4974 8.68 83.8614 8.792 84.3174 8.792C84.7414 8.792 85.0534 8.704 85.2534 8.528C85.4534 8.344 85.5534 8.128 85.5534 7.88C85.5534 7.52 85.4214 7.28 85.1574 7.16C84.9014 7.04 84.5374 6.932 84.0654 6.836C83.7454 6.772 83.4254 6.68 83.1054 6.56C82.7854 6.44 82.5174 6.272 82.3014 6.056C82.0854 5.832 81.9774 5.54 81.9774 5.18C81.9774 4.66 82.1694 4.236 82.5534 3.908C82.9454 3.572 83.4734 3.404 84.1374 3.404C84.7694 3.404 85.2854 3.564 85.6854 3.884C86.0934 4.196 86.3294 4.644 86.3934 5.228H85.3974C85.3574 4.924 85.2254 4.688 85.0014 4.52C84.7854 4.344 84.4934 4.256 84.1254 4.256C83.7654 4.256 83.4854 4.332 83.2854 4.484C83.0934 4.636 82.9974 4.836 82.9974 5.084C82.9974 5.324 83.1214 5.512 83.3694 5.648C83.6254 5.784 83.9694 5.9 84.4014 5.996C84.7694 6.076 85.1174 6.176 85.4454 6.296C85.7814 6.408 86.0534 6.58 86.2614 6.812C86.4774 7.036 86.5854 7.364 86.5854 7.796C86.5934 8.332 86.3894 8.776 85.9734 9.128C85.5654 9.472 85.0094 9.644 84.3054 9.644ZM93.9132 9.644C93.3532 9.644 92.8492 9.516 92.4012 9.26C91.9532 9.004 91.5972 8.644 91.3332 8.18C91.0772 7.708 90.9492 7.156 90.9492 6.524C90.9492 5.892 91.0812 5.344 91.3452 4.88C91.6092 4.408 91.9652 4.044 92.4132 3.788C92.8692 3.532 93.3772 3.404 93.9372 3.404C94.4972 3.404 95.0012 3.532 95.4492 3.788C95.8972 4.044 96.2492 4.408 96.5052 4.88C96.7692 5.344 96.9012 5.892 96.9012 6.524C96.9012 7.156 96.7692 7.708 96.5052 8.18C96.2412 8.644 95.8812 9.004 95.4252 9.26C94.9772 9.516 94.4732 9.644 93.9132 9.644ZM93.9132 8.78C94.2572 8.78 94.5772 8.696 94.8732 8.528C95.1692 8.36 95.4092 8.108 95.5932 7.772C95.7772 7.436 95.8692 7.02 95.8692 6.524C95.8692 6.028 95.7772 5.612 95.5932 5.276C95.4172 4.94 95.1812 4.688 94.8852 4.52C94.5892 4.352 94.2732 4.268 93.9372 4.268C93.5932 4.268 93.2732 4.352 92.9772 4.52C92.6812 4.688 92.4412 4.94 92.2572 5.276C92.0732 5.612 91.9812 6.028 91.9812 6.524C91.9812 7.02 92.0732 7.436 92.2572 7.772C92.4412 8.108 92.6772 8.36 92.9652 8.528C93.2612 8.696 93.5772 8.78 93.9132 8.78ZM100.583 9.644C99.8708 9.644 99.2788 9.464 98.8068 9.104C98.3348 8.744 98.0588 8.256 97.9788 7.64H99.0108C99.0748 7.952 99.2388 8.224 99.5028 8.456C99.7748 8.68 100.139 8.792 100.595 8.792C101.019 8.792 101.331 8.704 101.531 8.528C101.731 8.344 101.831 8.128 101.831 7.88C101.831 7.52 101.699 7.28 101.435 7.16C101.179 7.04 100.815 6.932 100.343 6.836C100.023 6.772 99.7028 6.68 99.3828 6.56C99.0628 6.44 98.7948 6.272 98.5788 6.056C98.3628 5.832 98.2548 5.54 98.2548 5.18C98.2548 4.66 98.4468 4.236 98.8308 3.908C99.2228 3.572 99.7508 3.404 100.415 3.404C101.047 3.404 101.563 3.564 101.963 3.884C102.371 4.196 102.607 4.644 102.671 5.228H101.675C101.635 4.924 101.503 4.688 101.279 4.52C101.063 4.344 100.771 4.256 100.403 4.256C100.043 4.256 99.7628 4.332 99.5628 4.484C99.3708 4.636 99.2748 4.836 99.2748 5.084C99.2748 5.324 99.3988 5.512 99.6468 5.648C99.9028 5.784 100.247 5.9 100.679 5.996C101.047 6.076 101.395 6.176 101.723 6.296C102.059 6.408 102.331 6.58 102.539 6.812C102.755 7.036 102.863 7.364 102.863 7.796C102.871 8.332 102.667 8.776 102.251 9.128C101.843 9.472 101.287 9.644 100.583 9.644ZM110.179 9.644C109.587 9.644 109.067 9.508 108.619 9.236C108.179 8.964 107.835 8.592 107.587 8.12C107.347 7.648 107.227 7.112 107.227 6.512C107.227 5.912 107.351 5.38 107.599 4.916C107.847 4.444 108.191 4.076 108.631 3.812C109.071 3.54 109.591 3.404 110.191 3.404C110.679 3.404 111.111 3.504 111.487 3.704C111.863 3.904 112.155 4.184 112.363 4.544V0.86H113.371V9.5H112.459L112.363 8.516C112.171 8.804 111.895 9.064 111.535 9.296C111.175 9.528 110.723 9.644 110.179 9.644ZM110.287 8.768C110.687 8.768 111.039 8.676 111.343 8.492C111.655 8.3 111.895 8.036 112.063 7.7C112.239 7.364 112.327 6.972 112.327 6.524C112.327 6.076 112.239 5.684 112.063 5.348C111.895 5.012 111.655 4.752 111.343 4.568C111.039 4.376 110.687 4.28 110.287 4.28C109.895 4.28 109.543 4.376 109.231 4.568C108.927 4.752 108.687 5.012 108.511 5.348C108.343 5.684 108.259 6.076 108.259 6.524C108.259 6.972 108.343 7.364 108.511 7.7C108.687 8.036 108.927 8.3 109.231 8.492C109.543 8.676 109.895 8.768 110.287 8.768ZM115.626 2.228C115.426 2.228 115.258 2.164 115.122 2.036C114.994 1.9 114.93 1.732 114.93 1.532C114.93 1.34 114.994 1.18 115.122 1.052C115.258 0.924 115.426 0.86 115.626 0.86C115.818 0.86 115.982 0.924 116.118 1.052C116.254 1.18 116.322 1.34 116.322 1.532C116.322 1.732 116.254 1.9 116.118 2.036C115.982 2.164 115.818 2.228 115.626 2.228ZM115.122 9.5V3.548H116.13V9.5H115.122ZM117.885 9.5V3.548H118.797L118.881 4.688C119.065 4.296 119.345 3.984 119.721 3.752C120.097 3.52 120.561 3.404 121.113 3.404V4.46H120.837C120.485 4.46 120.161 4.524 119.865 4.652C119.569 4.772 119.333 4.98 119.157 5.276C118.981 5.572 118.893 5.98 118.893 6.5V9.5H117.885ZM124.698 9.644C124.13 9.644 123.626 9.516 123.186 9.26C122.746 8.996 122.398 8.632 122.142 8.168C121.894 7.704 121.77 7.156 121.77 6.524C121.77 5.9 121.894 5.356 122.142 4.892C122.39 4.42 122.734 4.056 123.174 3.8C123.622 3.536 124.138 3.404 124.722 3.404C125.298 3.404 125.794 3.536 126.21 3.8C126.634 4.056 126.958 4.396 127.182 4.82C127.406 5.244 127.518 5.7 127.518 6.188C127.518 6.276 127.514 6.364 127.506 6.452C127.506 6.54 127.506 6.64 127.506 6.752H122.766C122.79 7.208 122.894 7.588 123.078 7.892C123.27 8.188 123.506 8.412 123.786 8.564C124.074 8.716 124.378 8.792 124.698 8.792C125.114 8.792 125.462 8.696 125.742 8.504C126.022 8.312 126.226 8.052 126.354 7.724H127.35C127.19 8.276 126.882 8.736 126.426 9.104C125.978 9.464 125.402 9.644 124.698 9.644ZM124.698 4.256C124.218 4.256 123.79 4.404 123.414 4.7C123.046 4.988 122.834 5.412 122.778 5.972H126.522C126.498 5.436 126.314 5.016 125.97 4.712C125.626 4.408 125.202 4.256 124.698 4.256ZM129.466 2.228C129.266 2.228 129.098 2.164 128.962 2.036C128.834 1.9 128.77 1.732 128.77 1.532C128.77 1.34 128.834 1.18 128.962 1.052C129.098 0.924 129.266 0.86 129.466 0.86C129.658 0.86 129.822 0.924 129.958 1.052C130.094 1.18 130.162 1.34 130.162 1.532C130.162 1.732 130.094 1.9 129.958 2.036C129.822 2.164 129.658 2.228 129.466 2.228ZM128.962 9.5V3.548H129.97V9.5H128.962ZM134.077 9.5C133.533 9.5 133.105 9.368 132.793 9.104C132.481 8.84 132.325 8.364 132.325 7.676V4.4H131.293V3.548H132.325L132.457 2.12H133.333V3.548H135.085V4.4H133.333V7.676C133.333 8.052 133.409 8.308 133.561 8.444C133.713 8.572 133.981 8.636 134.365 8.636H134.989V9.5H134.077ZM138.913 9.644C138.353 9.644 137.849 9.516 137.401 9.26C136.953 9.004 136.597 8.644 136.333 8.18C136.077 7.708 135.949 7.156 135.949 6.524C135.949 5.892 136.081 5.344 136.345 4.88C136.609 4.408 136.965 4.044 137.413 3.788C137.869 3.532 138.377 3.404 138.937 3.404C139.497 3.404 140.001 3.532 140.449 3.788C140.897 4.044 141.249 4.408 141.505 4.88C141.769 5.344 141.901 5.892 141.901 6.524C141.901 7.156 141.769 7.708 141.505 8.18C141.241 8.644 140.881 9.004 140.425 9.26C139.977 9.516 139.473 9.644 138.913 9.644ZM138.913 8.78C139.257 8.78 139.577 8.696 139.873 8.528C140.169 8.36 140.409 8.108 140.593 7.772C140.777 7.436 140.869 7.02 140.869 6.524C140.869 6.028 140.777 5.612 140.593 5.276C140.417 4.94 140.181 4.688 139.885 4.52C139.589 4.352 139.273 4.268 138.937 4.268C138.593 4.268 138.273 4.352 137.977 4.52C137.681 4.688 137.441 4.94 137.257 5.276C137.073 5.612 136.981 6.028 136.981 6.524C136.981 7.02 137.073 7.436 137.257 7.772C137.441 8.108 137.677 8.36 137.965 8.528C138.261 8.696 138.577 8.78 138.913 8.78ZM145.583 9.644C144.871 9.644 144.279 9.464 143.807 9.104C143.335 8.744 143.059 8.256 142.979 7.64H144.011C144.075 7.952 144.239 8.224 144.503 8.456C144.775 8.68 145.139 8.792 145.595 8.792C146.019 8.792 146.331 8.704 146.531 8.528C146.731 8.344 146.831 8.128 146.831 7.88C146.831 7.52 146.699 7.28 146.435 7.16C146.179 7.04 145.815 6.932 145.343 6.836C145.023 6.772 144.703 6.68 144.383 6.56C144.063 6.44 143.795 6.272 143.579 6.056C143.363 5.832 143.255 5.54 143.255 5.18C143.255 4.66 143.447 4.236 143.831 3.908C144.223 3.572 144.751 3.404 145.415 3.404C146.047 3.404 146.563 3.564 146.963 3.884C147.371 4.196 147.607 4.644 147.671 5.228H146.675C146.635 4.924 146.503 4.688 146.279 4.52C146.063 4.344 145.771 4.256 145.403 4.256C145.043 4.256 144.763 4.332 144.563 4.484C144.371 4.636 144.275 4.836 144.275 5.084C144.275 5.324 144.399 5.512 144.647 5.648C144.903 5.784 145.247 5.9 145.679 5.996C146.047 6.076 146.395 6.176 146.723 6.296C147.059 6.408 147.331 6.58 147.539 6.812C147.755 7.036 147.863 7.364 147.863 7.796C147.871 8.332 147.667 8.776 147.251 9.128C146.843 9.472 146.287 9.644 145.583 9.644ZM152.479 9.5V3.548H153.391L153.475 4.688C153.659 4.296 153.939 3.984 154.315 3.752C154.691 3.52 155.155 3.404 155.707 3.404V4.46H155.431C155.079 4.46 154.755 4.524 154.459 4.652C154.163 4.772 153.927 4.98 153.751 5.276C153.575 5.572 153.487 5.98 153.487 6.5V9.5H152.479ZM159.291 9.644C158.723 9.644 158.219 9.516 157.779 9.26C157.339 8.996 156.991 8.632 156.735 8.168C156.487 7.704 156.363 7.156 156.363 6.524C156.363 5.9 156.487 5.356 156.735 4.892C156.983 4.42 157.327 4.056 157.767 3.8C158.215 3.536 158.731 3.404 159.315 3.404C159.891 3.404 160.387 3.536 160.803 3.8C161.227 4.056 161.551 4.396 161.775 4.82C161.999 5.244 162.111 5.7 162.111 6.188C162.111 6.276 162.107 6.364 162.099 6.452C162.099 6.54 162.099 6.64 162.099 6.752H157.359C157.383 7.208 157.487 7.588 157.671 7.892C157.863 8.188 158.099 8.412 158.379 8.564C158.667 8.716 158.971 8.792 159.291 8.792C159.707 8.792 160.055 8.696 160.335 8.504C160.615 8.312 160.819 8.052 160.947 7.724H161.943C161.783 8.276 161.475 8.736 161.019 9.104C160.571 9.464 159.995 9.644 159.291 9.644ZM159.291 4.256C158.811 4.256 158.383 4.404 158.007 4.7C157.639 4.988 157.427 5.412 157.371 5.972H161.115C161.091 5.436 160.907 5.016 160.563 4.712C160.219 4.408 159.795 4.256 159.291 4.256ZM165.727 9.644C165.015 9.644 164.423 9.464 163.951 9.104C163.479 8.744 163.203 8.256 163.123 7.64H164.155C164.219 7.952 164.383 8.224 164.647 8.456C164.919 8.68 165.283 8.792 165.739 8.792C166.163 8.792 166.475 8.704 166.675 8.528C166.875 8.344 166.975 8.128 166.975 7.88C166.975 7.52 166.843 7.28 166.579 7.16C166.323 7.04 165.959 6.932 165.487 6.836C165.167 6.772 164.847 6.68 164.527 6.56C164.207 6.44 163.939 6.272 163.723 6.056C163.507 5.832 163.399 5.54 163.399 5.18C163.399 4.66 163.591 4.236 163.975 3.908C164.367 3.572 164.895 3.404 165.559 3.404C166.191 3.404 166.707 3.564 167.107 3.884C167.515 4.196 167.751 4.644 167.815 5.228H166.819C166.779 4.924 166.647 4.688 166.423 4.52C166.207 4.344 165.915 4.256 165.547 4.256C165.187 4.256 164.907 4.332 164.707 4.484C164.515 4.636 164.419 4.836 164.419 5.084C164.419 5.324 164.543 5.512 164.791 5.648C165.047 5.784 165.391 5.9 165.823 5.996C166.191 6.076 166.539 6.176 166.867 6.296C167.203 6.408 167.475 6.58 167.683 6.812C167.899 7.036 168.007 7.364 168.007 7.796C168.015 8.332 167.811 8.776 167.395 9.128C166.987 9.472 166.431 9.644 165.727 9.644ZM172.123 9.644C171.555 9.644 171.051 9.516 170.611 9.26C170.171 8.996 169.823 8.632 169.567 8.168C169.319 7.704 169.195 7.156 169.195 6.524C169.195 5.9 169.319 5.356 169.567 4.892C169.815 4.42 170.159 4.056 170.599 3.8C171.047 3.536 171.563 3.404 172.147 3.404C172.723 3.404 173.219 3.536 173.635 3.8C174.059 4.056 174.383 4.396 174.607 4.82C174.831 5.244 174.943 5.7 174.943 6.188C174.943 6.276 174.939 6.364 174.931 6.452C174.931 6.54 174.931 6.64 174.931 6.752H170.191C170.215 7.208 170.319 7.588 170.503 7.892C170.695 8.188 170.931 8.412 171.211 8.564C171.499 8.716 171.803 8.792 172.123 8.792C172.539 8.792 172.887 8.696 173.167 8.504C173.447 8.312 173.651 8.052 173.779 7.724H174.775C174.615 8.276 174.307 8.736 173.851 9.104C173.403 9.464 172.827 9.644 172.123 9.644ZM172.123 4.256C171.643 4.256 171.215 4.404 170.839 4.7C170.471 4.988 170.259 5.412 170.203 5.972H173.947C173.923 5.436 173.739 5.016 173.395 4.712C173.051 4.408 172.627 4.256 172.123 4.256ZM176.279 9.5V3.548H177.191L177.275 4.688C177.459 4.296 177.739 3.984 178.115 3.752C178.491 3.52 178.955 3.404 179.507 3.404V4.46H179.231C178.879 4.46 178.555 4.524 178.259 4.652C177.963 4.772 177.727 4.98 177.551 5.276C177.375 5.572 177.287 5.98 177.287 6.5V9.5H176.279ZM182.355 9.5L180.099 3.548H181.155L182.943 8.528L184.743 3.548H185.775L183.519 9.5H182.355ZM188.572 9.644C188.076 9.644 187.664 9.56 187.336 9.392C187.008 9.224 186.764 9 186.604 8.72C186.444 8.44 186.364 8.136 186.364 7.808C186.364 7.2 186.596 6.732 187.06 6.404C187.524 6.076 188.156 5.912 188.956 5.912H190.564V5.84C190.564 5.32 190.428 4.928 190.156 4.664C189.884 4.392 189.52 4.256 189.064 4.256C188.672 4.256 188.332 4.356 188.044 4.556C187.764 4.748 187.588 5.032 187.516 5.408H186.484C186.524 4.976 186.668 4.612 186.916 4.316C187.172 4.02 187.488 3.796 187.864 3.644C188.24 3.484 188.64 3.404 189.064 3.404C189.896 3.404 190.52 3.628 190.936 4.076C191.36 4.516 191.572 5.104 191.572 5.84V9.5H190.672L190.612 8.432C190.444 8.768 190.196 9.056 189.868 9.296C189.548 9.528 189.116 9.644 188.572 9.644ZM188.728 8.792C189.112 8.792 189.44 8.692 189.712 8.492C189.992 8.292 190.204 8.032 190.348 7.712C190.492 7.392 190.564 7.056 190.564 6.704V6.692H189.04C188.448 6.692 188.028 6.796 187.78 7.004C187.54 7.204 187.42 7.456 187.42 7.76C187.42 8.072 187.532 8.324 187.756 8.516C187.988 8.7 188.312 8.792 188.728 8.792ZM195.784 9.644C195.192 9.644 194.672 9.508 194.224 9.236C193.784 8.964 193.44 8.592 193.192 8.12C192.952 7.648 192.832 7.112 192.832 6.512C192.832 5.912 192.956 5.38 193.204 4.916C193.452 4.444 193.796 4.076 194.236 3.812C194.676 3.54 195.196 3.404 195.796 3.404C196.284 3.404 196.716 3.504 197.092 3.704C197.468 3.904 197.76 4.184 197.968 4.544V0.86H198.976V9.5H198.064L197.968 8.516C197.776 8.804 197.5 9.064 197.14 9.296C196.78 9.528 196.328 9.644 195.784 9.644ZM195.892 8.768C196.292 8.768 196.644 8.676 196.948 8.492C197.26 8.3 197.5 8.036 197.668 7.7C197.844 7.364 197.932 6.972 197.932 6.524C197.932 6.076 197.844 5.684 197.668 5.348C197.5 5.012 197.26 4.752 196.948 4.568C196.644 4.376 196.292 4.28 195.892 4.28C195.5 4.28 195.148 4.376 194.836 4.568C194.532 4.752 194.292 5.012 194.116 5.348C193.948 5.684 193.864 6.076 193.864 6.524C193.864 6.972 193.948 7.364 194.116 7.7C194.292 8.036 194.532 8.3 194.836 8.492C195.148 8.676 195.5 8.768 195.892 8.768ZM203.331 9.644C202.771 9.644 202.267 9.516 201.819 9.26C201.371 9.004 201.015 8.644 200.751 8.18C200.495 7.708 200.367 7.156 200.367 6.524C200.367 5.892 200.499 5.344 200.763 4.88C201.027 4.408 201.383 4.044 201.831 3.788C202.287 3.532 202.795 3.404 203.355 3.404C203.915 3.404 204.419 3.532 204.867 3.788C205.315 4.044 205.667 4.408 205.923 4.88C206.187 5.344 206.319 5.892 206.319 6.524C206.319 7.156 206.187 7.708 205.923 8.18C205.659 8.644 205.299 9.004 204.843 9.26C204.395 9.516 203.891 9.644 203.331 9.644ZM203.331 8.78C203.675 8.78 203.995 8.696 204.291 8.528C204.587 8.36 204.827 8.108 205.011 7.772C205.195 7.436 205.287 7.02 205.287 6.524C205.287 6.028 205.195 5.612 205.011 5.276C204.835 4.94 204.599 4.688 204.303 4.52C204.007 4.352 203.691 4.268 203.355 4.268C203.011 4.268 202.691 4.352 202.395 4.52C202.099 4.688 201.859 4.94 201.675 5.276C201.491 5.612 201.399 6.028 201.399 6.524C201.399 7.02 201.491 7.436 201.675 7.772C201.859 8.108 202.095 8.36 202.383 8.528C202.679 8.696 202.995 8.78 203.331 8.78ZM210.001 9.644C209.289 9.644 208.697 9.464 208.225 9.104C207.753 8.744 207.477 8.256 207.397 7.64H208.429C208.493 7.952 208.657 8.224 208.921 8.456C209.193 8.68 209.557 8.792 210.013 8.792C210.437 8.792 210.749 8.704 210.949 8.528C211.149 8.344 211.249 8.128 211.249 7.88C211.249 7.52 211.117 7.28 210.853 7.16C210.597 7.04 210.233 6.932 209.761 6.836C209.441 6.772 209.121 6.68 208.801 6.56C208.481 6.44 208.213 6.272 207.997 6.056C207.781 5.832 207.673 5.54 207.673 5.18C207.673 4.66 207.865 4.236 208.249 3.908C208.641 3.572 209.169 3.404 209.833 3.404C210.465 3.404 210.981 3.564 211.381 3.884C211.789 4.196 212.025 4.644 212.089 5.228H211.093C211.053 4.924 210.921 4.688 210.697 4.52C210.481 4.344 210.189 4.256 209.821 4.256C209.461 4.256 209.181 4.332 208.981 4.484C208.789 4.636 208.693 4.836 208.693 5.084C208.693 5.324 208.817 5.512 209.065 5.648C209.321 5.784 209.665 5.9 210.097 5.996C210.465 6.076 210.813 6.176 211.141 6.296C211.477 6.408 211.749 6.58 211.957 6.812C212.173 7.036 212.281 7.364 212.281 7.796C212.289 8.332 212.085 8.776 211.669 9.128C211.261 9.472 210.705 9.644 210.001 9.644ZM214.069 9.56C213.869 9.56 213.701 9.496 213.565 9.368C213.437 9.232 213.373 9.068 213.373 8.876C213.373 8.684 213.437 8.524 213.565 8.396C213.701 8.26 213.869 8.192 214.069 8.192C214.261 8.192 214.421 8.26 214.549 8.396C214.685 8.524 214.753 8.684 214.753 8.876C214.753 9.068 214.685 9.232 214.549 9.368C214.421 9.496 214.261 9.56 214.069 9.56Z" fill="#FFFAF1"/>
</svg>
