<svg width="873" height="31" viewBox="0 0 873 31" fill="none" xmlns="http://www.w3.org/2000/svg">
<path d="M46.1523 22.7443H42.7539V8.93964C42.7539 7.9787 42.9414 7.1701 43.3164 6.51385C43.6992 5.84979 44.2344 5.34979 44.9219 5.01385C45.6172 4.6701 46.4414 4.49823 47.3945 4.49823C47.707 4.49823 48.0078 4.52167 48.2969 4.56854C48.5859 4.6076 48.8672 4.65839 49.1406 4.72089L49.1055 7.26385C48.957 7.22479 48.8008 7.19745 48.6367 7.18182C48.4727 7.1662 48.2812 7.15839 48.0625 7.15839C47.6562 7.15839 47.3086 7.2287 47.0195 7.36932C46.7383 7.50214 46.5234 7.70135 46.375 7.96698C46.2266 8.2326 46.1523 8.55682 46.1523 8.93964V22.7443ZM48.6836 10.0646V12.4553H40.8672V10.0646H48.6836ZM49.9141 16.5334V16.2873C49.9141 15.3576 50.0469 14.5021 50.3125 13.7209C50.5781 12.9318 50.9648 12.2482 51.4727 11.6701C51.9805 11.092 52.6055 10.6428 53.3477 10.3224C54.0898 9.99432 54.9414 9.83026 55.9023 9.83026C56.8633 9.83026 57.7188 9.99432 58.4688 10.3224C59.2188 10.6428 59.8477 11.092 60.3555 11.6701C60.8711 12.2482 61.2617 12.9318 61.5273 13.7209C61.793 14.5021 61.9258 15.3576 61.9258 16.2873V16.5334C61.9258 17.4553 61.793 18.3107 61.5273 19.0998C61.2617 19.881 60.8711 20.5646 60.3555 21.1506C59.8477 21.7287 59.2227 22.1779 58.4805 22.4982C57.7383 22.8185 56.8867 22.9787 55.9258 22.9787C54.9648 22.9787 54.1094 22.8185 53.3594 22.4982C52.6172 22.1779 51.9883 21.7287 51.4727 21.1506C50.9648 20.5646 50.5781 19.881 50.3125 19.0998C50.0469 18.3107 49.9141 17.4553 49.9141 16.5334ZM53.2891 16.2873V16.5334C53.2891 17.0646 53.3359 17.5607 53.4297 18.0217C53.5234 18.4826 53.6719 18.8889 53.875 19.2404C54.0859 19.5842 54.3594 19.8537 54.6953 20.049C55.0312 20.2443 55.4414 20.342 55.9258 20.342C56.3945 20.342 56.7969 20.2443 57.1328 20.049C57.4688 19.8537 57.7383 19.5842 57.9414 19.2404C58.1445 18.8889 58.293 18.4826 58.3867 18.0217C58.4883 17.5607 58.5391 17.0646 58.5391 16.5334V16.2873C58.5391 15.7717 58.4883 15.2873 58.3867 14.8342C58.293 14.3732 58.1406 13.967 57.9297 13.6154C57.7266 13.256 57.457 12.9748 57.1211 12.7717C56.7852 12.5685 56.3789 12.467 55.9023 12.467C55.4258 12.467 55.0195 12.5685 54.6836 12.7717C54.3555 12.9748 54.0859 13.256 53.875 13.6154C53.6719 13.967 53.5234 14.3732 53.4297 14.8342C53.3359 15.2873 53.2891 15.7717 53.2891 16.2873ZM63.4609 16.5334V16.2873C63.4609 15.3576 63.5938 14.5021 63.8594 13.7209C64.125 12.9318 64.5117 12.2482 65.0195 11.6701C65.5273 11.092 66.1523 10.6428 66.8945 10.3224C67.6367 9.99432 68.4883 9.83026 69.4492 9.83026C70.4102 9.83026 71.2656 9.99432 72.0156 10.3224C72.7656 10.6428 73.3945 11.092 73.9023 11.6701C74.418 12.2482 74.8086 12.9318 75.0742 13.7209C75.3398 14.5021 75.4727 15.3576 75.4727 16.2873V16.5334C75.4727 17.4553 75.3398 18.3107 75.0742 19.0998C74.8086 19.881 74.418 20.5646 73.9023 21.1506C73.3945 21.7287 72.7695 22.1779 72.0273 22.4982C71.2852 22.8185 70.4336 22.9787 69.4727 22.9787C68.5117 22.9787 67.6562 22.8185 66.9062 22.4982C66.1641 22.1779 65.5352 21.7287 65.0195 21.1506C64.5117 20.5646 64.125 19.881 63.8594 19.0998C63.5938 18.3107 63.4609 17.4553 63.4609 16.5334ZM66.8359 16.2873V16.5334C66.8359 17.0646 66.8828 17.5607 66.9766 18.0217C67.0703 18.4826 67.2188 18.8889 67.4219 19.2404C67.6328 19.5842 67.9062 19.8537 68.2422 20.049C68.5781 20.2443 68.9883 20.342 69.4727 20.342C69.9414 20.342 70.3438 20.2443 70.6797 20.049C71.0156 19.8537 71.2852 19.5842 71.4883 19.2404C71.6914 18.8889 71.8398 18.4826 71.9336 18.0217C72.0352 17.5607 72.0859 17.0646 72.0859 16.5334V16.2873C72.0859 15.7717 72.0352 15.2873 71.9336 14.8342C71.8398 14.3732 71.6875 13.967 71.4766 13.6154C71.2734 13.256 71.0039 12.9748 70.668 12.7717C70.332 12.5685 69.9258 12.467 69.4492 12.467C68.9727 12.467 68.5664 12.5685 68.2305 12.7717C67.9023 12.9748 67.6328 13.256 67.4219 13.6154C67.2188 13.967 67.0703 14.3732 66.9766 14.8342C66.8828 15.2873 66.8359 15.7717 66.8359 16.2873ZM85.0352 19.9787V4.74432H88.4336V22.7443H85.375L85.0352 19.9787ZM77.0195 16.5568V16.3107C77.0195 15.342 77.1289 14.4631 77.3477 13.674C77.5664 12.8771 77.8867 12.1935 78.3086 11.6232C78.7305 11.0529 79.25 10.6115 79.8672 10.299C80.4844 9.98651 81.1875 9.83026 81.9766 9.83026C82.7188 9.83026 83.3672 9.98651 83.9219 10.299C84.4844 10.6115 84.9609 11.0568 85.3516 11.6349C85.75 12.2053 86.0703 12.881 86.3125 13.6623C86.5547 14.4357 86.7305 15.2834 86.8398 16.2053V16.7443C86.7305 17.6271 86.5547 18.4474 86.3125 19.2053C86.0703 19.9631 85.75 20.6271 85.3516 21.1974C84.9609 21.7599 84.4844 22.1974 83.9219 22.5099C83.3594 22.8224 82.7031 22.9787 81.9531 22.9787C81.1641 22.9787 80.4609 22.8185 79.8438 22.4982C79.2344 22.1779 78.7188 21.7287 78.2969 21.1506C77.8828 20.5724 77.5664 19.8928 77.3477 19.1115C77.1289 18.3303 77.0195 17.4787 77.0195 16.5568ZM80.3945 16.3107V16.5568C80.3945 17.0803 80.4336 17.5685 80.5117 18.0217C80.5977 18.4748 80.7344 18.8771 80.9219 19.2287C81.1172 19.5724 81.3672 19.842 81.6719 20.0373C81.9844 20.2248 82.3633 20.3185 82.8086 20.3185C83.3867 20.3185 83.8633 20.1896 84.2383 19.9318C84.6133 19.6662 84.8984 19.3029 85.0938 18.842C85.2969 18.381 85.4141 17.8498 85.4453 17.2482V15.7131C85.4219 15.2209 85.3516 14.7795 85.2344 14.3889C85.125 13.9904 84.9609 13.6506 84.7422 13.3693C84.5312 13.0881 84.2656 12.8693 83.9453 12.7131C83.6328 12.5568 83.2617 12.4787 82.832 12.4787C82.3945 12.4787 82.0195 12.5803 81.707 12.7834C81.3945 12.9787 81.1406 13.2482 80.9453 13.592C80.7578 13.9357 80.6172 14.342 80.5234 14.8107C80.4375 15.2717 80.3945 15.7717 80.3945 16.3107ZM102.883 22.9787C101.898 22.9787 101.016 22.8224 100.234 22.5099C99.4531 22.1896 98.7891 21.7482 98.2422 21.1857C97.7031 20.6232 97.2891 19.9709 97 19.2287C96.7109 18.4787 96.5664 17.6818 96.5664 16.8381V16.3693C96.5664 15.4084 96.7031 14.5295 96.9766 13.7326C97.25 12.9357 97.6406 12.2443 98.1484 11.6584C98.6641 11.0724 99.2891 10.6232 100.023 10.3107C100.758 9.99042 101.586 9.83026 102.508 9.83026C103.406 9.83026 104.203 9.9787 104.898 10.2756C105.594 10.5724 106.176 10.9943 106.645 11.5412C107.121 12.0881 107.48 12.7443 107.723 13.5099C107.965 14.2678 108.086 15.1115 108.086 16.0412V17.4474H98.0078V15.1974H104.77V14.9396C104.77 14.4709 104.684 14.0529 104.512 13.6857C104.348 13.3107 104.098 13.0139 103.762 12.7951C103.426 12.5764 102.996 12.467 102.473 12.467C102.027 12.467 101.645 12.5646 101.324 12.7599C101.004 12.9553 100.742 13.2287 100.539 13.5803C100.344 13.9318 100.195 14.3459 100.094 14.8224C100 15.2912 99.9531 15.8068 99.9531 16.3693V16.8381C99.9531 17.3459 100.023 17.8146 100.164 18.2443C100.312 18.674 100.52 19.0451 100.785 19.3576C101.059 19.6701 101.387 19.9123 101.77 20.0842C102.16 20.256 102.602 20.342 103.094 20.342C103.703 20.342 104.27 20.2248 104.793 19.9904C105.324 19.7482 105.781 19.3849 106.164 18.9006L107.805 20.6818C107.539 21.0646 107.176 21.4318 106.715 21.7834C106.262 22.1349 105.715 22.424 105.074 22.6506C104.434 22.8693 103.703 22.9787 102.883 22.9787ZM112.727 10.0646L114.824 13.9201L116.98 10.0646H120.578L116.992 16.2639L120.742 22.7443H117.133L114.848 18.6662L112.562 22.7443H108.953L112.703 16.2639L109.117 10.0646H112.727ZM125.594 12.5021V27.6193H122.219V10.0646H125.348L125.594 12.5021ZM133.621 16.2639V16.5099C133.621 17.4318 133.512 18.2873 133.293 19.0764C133.082 19.8654 132.77 20.5529 132.355 21.1389C131.941 21.717 131.426 22.1701 130.809 22.4982C130.199 22.8185 129.496 22.9787 128.699 22.9787C127.926 22.9787 127.254 22.8224 126.684 22.5099C126.113 22.1974 125.633 21.7599 125.242 21.1974C124.859 20.6271 124.551 19.967 124.316 19.217C124.082 18.467 123.902 17.6623 123.777 16.8029V16.1584C123.902 15.2365 124.082 14.3928 124.316 13.6271C124.551 12.8537 124.859 12.1857 125.242 11.6232C125.633 11.0529 126.109 10.6115 126.672 10.299C127.242 9.98651 127.91 9.83026 128.676 9.83026C129.48 9.83026 130.188 9.9826 130.797 10.2873C131.414 10.592 131.93 11.0295 132.344 11.5998C132.766 12.1701 133.082 12.8498 133.293 13.6389C133.512 14.4279 133.621 15.3029 133.621 16.2639ZM130.234 16.5099V16.2639C130.234 15.7248 130.188 15.2287 130.094 14.7756C130.008 14.3146 129.867 13.9123 129.672 13.5685C129.484 13.2248 129.234 12.9592 128.922 12.7717C128.617 12.5764 128.246 12.4787 127.809 12.4787C127.348 12.4787 126.953 12.5529 126.625 12.7014C126.305 12.8498 126.043 13.0646 125.84 13.3459C125.637 13.6271 125.484 13.9631 125.383 14.3537C125.281 14.7443 125.219 15.1857 125.195 15.6779V17.3068C125.234 17.8849 125.344 18.4045 125.523 18.8654C125.703 19.3185 125.98 19.6779 126.355 19.9435C126.73 20.2092 127.223 20.342 127.832 20.342C128.277 20.342 128.652 20.2443 128.957 20.049C129.262 19.8459 129.508 19.5685 129.695 19.217C129.891 18.8654 130.027 18.4592 130.105 17.9982C130.191 17.5373 130.234 17.0412 130.234 16.5099ZM139.281 4.74432V22.7443H135.895V4.74432H139.281ZM141.531 16.5334V16.2873C141.531 15.3576 141.664 14.5021 141.93 13.7209C142.195 12.9318 142.582 12.2482 143.09 11.6701C143.598 11.092 144.223 10.6428 144.965 10.3224C145.707 9.99432 146.559 9.83026 147.52 9.83026C148.48 9.83026 149.336 9.99432 150.086 10.3224C150.836 10.6428 151.465 11.092 151.973 11.6701C152.488 12.2482 152.879 12.9318 153.145 13.7209C153.41 14.5021 153.543 15.3576 153.543 16.2873V16.5334C153.543 17.4553 153.41 18.3107 153.145 19.0998C152.879 19.881 152.488 20.5646 151.973 21.1506C151.465 21.7287 150.84 22.1779 150.098 22.4982C149.355 22.8185 148.504 22.9787 147.543 22.9787C146.582 22.9787 145.727 22.8185 144.977 22.4982C144.234 22.1779 143.605 21.7287 143.09 21.1506C142.582 20.5646 142.195 19.881 141.93 19.0998C141.664 18.3107 141.531 17.4553 141.531 16.5334ZM144.906 16.2873V16.5334C144.906 17.0646 144.953 17.5607 145.047 18.0217C145.141 18.4826 145.289 18.8889 145.492 19.2404C145.703 19.5842 145.977 19.8537 146.312 20.049C146.648 20.2443 147.059 20.342 147.543 20.342C148.012 20.342 148.414 20.2443 148.75 20.049C149.086 19.8537 149.355 19.5842 149.559 19.2404C149.762 18.8889 149.91 18.4826 150.004 18.0217C150.105 17.5607 150.156 17.0646 150.156 16.5334V16.2873C150.156 15.7717 150.105 15.2873 150.004 14.8342C149.91 14.3732 149.758 13.967 149.547 13.6154C149.344 13.256 149.074 12.9748 148.738 12.7717C148.402 12.5685 147.996 12.467 147.52 12.467C147.043 12.467 146.637 12.5685 146.301 12.7717C145.973 12.9748 145.703 13.256 145.492 13.6154C145.289 13.967 145.141 14.3732 145.047 14.8342C144.953 15.2873 144.906 15.7717 144.906 16.2873ZM158.992 12.8303V22.7443H155.617V10.0646H158.793L158.992 12.8303ZM162.812 9.9826L162.754 13.1115C162.59 13.0881 162.391 13.0685 162.156 13.0529C161.93 13.0295 161.723 13.0178 161.535 13.0178C161.059 13.0178 160.645 13.0803 160.293 13.2053C159.949 13.3224 159.66 13.4982 159.426 13.7326C159.199 13.967 159.027 14.2521 158.91 14.5881C158.801 14.924 158.738 15.3068 158.723 15.7365L158.043 15.5256C158.043 14.7053 158.125 13.9514 158.289 13.2639C158.453 12.5685 158.691 11.9631 159.004 11.4474C159.324 10.9318 159.715 10.5334 160.176 10.2521C160.637 9.97089 161.164 9.83026 161.758 9.83026C161.945 9.83026 162.137 9.84589 162.332 9.87714C162.527 9.90057 162.688 9.93573 162.812 9.9826ZM170.008 22.9787C169.023 22.9787 168.141 22.8224 167.359 22.5099C166.578 22.1896 165.914 21.7482 165.367 21.1857C164.828 20.6232 164.414 19.9709 164.125 19.2287C163.836 18.4787 163.691 17.6818 163.691 16.8381V16.3693C163.691 15.4084 163.828 14.5295 164.102 13.7326C164.375 12.9357 164.766 12.2443 165.273 11.6584C165.789 11.0724 166.414 10.6232 167.148 10.3107C167.883 9.99042 168.711 9.83026 169.633 9.83026C170.531 9.83026 171.328 9.9787 172.023 10.2756C172.719 10.5724 173.301 10.9943 173.77 11.5412C174.246 12.0881 174.605 12.7443 174.848 13.5099C175.09 14.2678 175.211 15.1115 175.211 16.0412V17.4474H165.133V15.1974H171.895V14.9396C171.895 14.4709 171.809 14.0529 171.637 13.6857C171.473 13.3107 171.223 13.0139 170.887 12.7951C170.551 12.5764 170.121 12.467 169.598 12.467C169.152 12.467 168.77 12.5646 168.449 12.7599C168.129 12.9553 167.867 13.2287 167.664 13.5803C167.469 13.9318 167.32 14.3459 167.219 14.8224C167.125 15.2912 167.078 15.8068 167.078 16.3693V16.8381C167.078 17.3459 167.148 17.8146 167.289 18.2443C167.438 18.674 167.645 19.0451 167.91 19.3576C168.184 19.6701 168.512 19.9123 168.895 20.0842C169.285 20.256 169.727 20.342 170.219 20.342C170.828 20.342 171.395 20.2248 171.918 19.9904C172.449 19.7482 172.906 19.3849 173.289 18.9006L174.93 20.6818C174.664 21.0646 174.301 21.4318 173.84 21.7834C173.387 22.1349 172.84 22.424 172.199 22.6506C171.559 22.8693 170.828 22.9787 170.008 22.9787ZM180.508 12.8303V22.7443H177.133V10.0646H180.309L180.508 12.8303ZM184.328 9.9826L184.27 13.1115C184.105 13.0881 183.906 13.0685 183.672 13.0529C183.445 13.0295 183.238 13.0178 183.051 13.0178C182.574 13.0178 182.16 13.0803 181.809 13.2053C181.465 13.3224 181.176 13.4982 180.941 13.7326C180.715 13.967 180.543 14.2521 180.426 14.5881C180.316 14.924 180.254 15.3068 180.238 15.7365L179.559 15.5256C179.559 14.7053 179.641 13.9514 179.805 13.2639C179.969 12.5685 180.207 11.9631 180.52 11.4474C180.84 10.9318 181.23 10.5334 181.691 10.2521C182.152 9.97089 182.68 9.83026 183.273 9.83026C183.461 9.83026 183.652 9.84589 183.848 9.87714C184.043 9.90057 184.203 9.93573 184.328 9.9826Z" fill="#4D585E"/>
<path d="M15.5391 0.744324L28.5294 8.24432V23.2443L15.5391 30.7443L2.54868 23.2443V8.24432L15.5391 0.744324Z" fill="#4D585E"/>
</svg>
